<svg xmlns="http://www.w3.org/2000/svg" width="4915.161" height="1062" viewBox="0 0 4915.161 1062">
  <g id="Group_1216" data-name="Group 1216" transform="translate(13006 10363)">
    <path id="Path_1428" data-name="Path 1428" d="M732,0H604L594-72q-26,37-77,62T395,15Q243,15,139.5-87.5T36-354q0-163,107.5-266.5T405-724q138,0,219,65T733-505L581-452q-11-45-54.5-84.5T405-576q-82,0-145.5,56.5T196-354q0,106,61,165.5T409-129q78,0,122-37.5T584-245H371V-379H732Zm3-137q0-63,41-101.5T882-287l117-18q36-5,36-34,0-23-19.5-38.5T962-393q-38,0-60.5,21.5T877-320L745-347q5-62,61.5-113.5T963-512q113,0,166.5,54T1183-320V-77q0,47,6,77H1052q-5-20-5-56-43,70-140,70-79,0-125.5-44.5T735-137ZM944-96q39,0,65-23t26-76v-22l-94,15q-56,9-56,55a49.956,49.956,0,0,0,14.5,36Q914-96,944-96ZM1373,0H1221V-497h145v57q18-32,59.5-52t83.5-20q107,0,147,78,54-78,154-78,78,0,131,47.5T1994-322V0H1847V-288q0-37-20-60.5T1768-372q-39,0-61,25t-22,60V0H1535V-288q0-37-20.5-60.5T1455-372q-38,0-60,25t-22,61Zm774-308h199q-2-34-26.5-59T2246-392q-44,0-70,26T2147-308Zm210,129,127,36q-19,69-79,113.5T2255,15q-108,0-183.5-72T1996-250q0-116,73.5-189T2244-512q116,0,182.5,67.5T2493-257q0,38-3,47H2144q2,41,35,68.5t78,27.5Q2334-114,2357-179Zm460-318v150q-21-5-48-5-51,0-83.5,33T2653-217V0H2501V-497h147v67q18-38,55-55t74-17Q2800-502,2817-497Zm-24,360q0-63,41-101.5T2940-287l117-18q36-5,36-34,0-23-19.5-38.5T3020-393q-38,0-60.5,21.5T2935-320l-132-27q5-62,61.5-113.5T3021-512q113,0,166.5,54T3241-320V-77q0,47,6,77H3110q-5-20-5-56-43,70-140,70-79,0-125.5-44.5T2793-137Zm209,41q39,0,65-23t26-76v-22l-94,15q-56,9-56,55a49.956,49.956,0,0,0,14.5,36Q2972-96,3002-96Zm454-546v145h97v133h-97v186q0,52,55,52,18,0,40-5V-5q-28,14-79,14-77,0-121.5-43T3306-151V-364h-88V-497h25q38,0,57.5-22.5T3320-578v-64Zm224,334h199q-2-34-26.5-59T3779-392q-44,0-70,26T3680-308Zm210,129,127,36q-19,69-79,113.5T3788,15q-108,0-183.5-72T3529-250q0-116,73.5-189T3777-512q116,0,182.5,67.5T4026-257q0,38-3,47H3677q2,41,35,68.5t78,27.5Q3867-114,3890-179Z" transform="translate(-13042 -9316)" fill="#ff8d8d"/>
    <g id="Icon_feather-feather" data-name="Icon feather-feather" transform="translate(-8861.161 -10313)">
      <path id="Path_1425" data-name="Path 1425" d="M556.431,372.123c84.445-84.445,84.445-221.357,0-305.8s-221.357-84.445-305.8,0L7.5,309.45V615.613H313.662Z" transform="translate(100.557 -2.987)" fill="none" stroke="#ff8d8d" stroke-linecap="round" stroke-linejoin="round" stroke-width="100"/>
      <path id="Path_1426" data-name="Path 1426" d="M507.267,12,3,516.268" transform="translate(-3 204.415)" fill="none" stroke="#ff8d8d" stroke-linecap="round" stroke-linejoin="round" stroke-width="100"/>
      <path id="Path_1427" data-name="Path 1427" d="M319.662,22.5H13.5" transform="translate(238.634 446.049)" fill="none" stroke="#ff8d8d" stroke-linecap="round" stroke-linejoin="round" stroke-width="100"/>
    </g>
  </g>
</svg>
